<svg id="OBJECTS" xmlns="http://www.w3.org/2000/svg" viewBox="0 0 87.71 173.46"><defs><style>.cls-1{fill:#1fb80f;}.cls-2{fill:#50ce5a;}.cls-3{fill:#45474a;}.cls-4{fill:#ff6148;}.cls-5{fill:#e9e8d8;}</style></defs><path class="cls-1" d="M370.08,125c.19-3.2,3.81-5.63,5.93-6.85V78.81a23.16,23.16,0,0,1,23.16-23.16H428.7a23.16,23.16,0,0,1,23.16,23.16v39.32c2.13,1.22,5.74,3.65,5.93,6.85l-5.93-2.93v86.5a20.55,20.55,0,0,1-20.55,20.56H396.57A20.55,20.55,0,0,1,376,208.55v-86.5Z" transform="translate(-370.08 -55.65)"/><path class="cls-2" d="M389.13,132.08l-11-49.69A21.86,21.86,0,0,1,400,60.53h27.87a21.86,21.86,0,0,1,21.85,21.86l-11,49.69c2,1.16,1.3,26.79,1.3,26.79v38.58c0,10.71,1,26.77-9.71,26.77H397.54c-10.71,0-9.64-17.82-9.64-28.53l-.07-36.82S387.12,133.24,389.13,132.08Z" transform="translate(-370.08 -55.65)"/><rect class="cls-3" x="21.2" y="82.14" width="3.52" height="57.9"/><rect class="cls-3" x="62.99" y="82.14" width="3.52" height="57.9"/><path class="cls-3" d="M440,158.87c.12-9.56.48-18.39,1.4-24.64C443.23,122,449,103.87,449,103.87V155C446,156.31,443,157.61,440,158.87Z" transform="translate(-370.08 -55.65)"/><path class="cls-3" d="M447.46,191.49c-.44,6-.81,10.13-.81,10.13S440,204.85,440,186.7v-2.49C442.51,186.61,445,189.05,447.46,191.49Z" transform="translate(-370.08 -55.65)"/><path class="cls-3" d="M440,182.08c0-6.44,0-13.21,0-19.75q3.83-1.35,7.62-2.74l1.36-.5v.12c0,8.85-.7,20.71-1.33,29.64C445.25,186.44,442.58,184.29,440,182.08Z" transform="translate(-370.08 -55.65)"/><path class="cls-3" d="M387.83,158.87c-.12-9.56-.48-18.39-1.4-24.64-1.79-12.22-7.54-30.36-7.54-30.36V155C381.84,156.31,384.83,157.61,387.83,158.87Z" transform="translate(-370.08 -55.65)"/><path class="cls-3" d="M387.83,158.87c-.12-9.56-.48-18.39-1.4-24.64-1.79-12.22-7.54-30.36-7.54-30.36V155C381.84,156.31,384.83,157.61,387.83,158.87Z" transform="translate(-370.08 -55.65)"/><path class="cls-3" d="M380.41,191.49c.45,6,.81,10.13.81,10.13s6.65,3.23,6.65-14.92v-2.49C385.36,186.61,382.88,189.05,380.41,191.49Z" transform="translate(-370.08 -55.65)"/><path class="cls-3" d="M387.88,182.08c0-6.44,0-13.21,0-19.75-2.54-.9-5.09-1.81-7.62-2.74l-1.36-.5v.12c0,8.85.7,20.71,1.33,29.64C382.62,186.44,385.29,184.29,387.88,182.08Z" transform="translate(-370.08 -55.65)"/><path class="cls-3" d="M413.94,89.49c-21.56,0-30.55,10.6-30.55,10.6l5.74,32h49.61l5.74-32S435.49,89.49,413.94,89.49Z" transform="translate(-370.08 -55.65)"/><path class="cls-3" d="M439.6,200.63a63.47,63.47,0,0,1-51.33,0,54.31,54.31,0,0,0-3.21,14.83,4.77,4.77,0,0,0,2.63,4.6,59.42,59.42,0,0,0,52.49,0,4.76,4.76,0,0,0,2.63-4.6A54.31,54.31,0,0,0,439.6,200.63Z" transform="translate(-370.08 -55.65)"/><path class="cls-4" d="M394,226a14.23,14.23,0,0,0-11.56-4.69,4.07,4.07,0,0,0,0,.78,20.5,20.5,0,0,0,12.59,5.53A6,6,0,0,0,394,226Z" transform="translate(-370.08 -55.65)"/><path class="cls-4" d="M433.84,226a14.22,14.22,0,0,1,11.56-4.69,5.08,5.08,0,0,1,0,.78,20.5,20.5,0,0,1-12.59,5.53A5.75,5.75,0,0,1,433.84,226Z" transform="translate(-370.08 -55.65)"/><path class="cls-5" d="M381.21,70.15C379.05,67,388.4,60.8,391.15,63S383,72.78,381.21,70.15Z" transform="translate(-370.08 -55.65)"/><path class="cls-5" d="M446.66,70.15c2.16-3.17-7.18-9.35-9.94-7.19S444.87,72.78,446.66,70.15Z" transform="translate(-370.08 -55.65)"/></svg>