<svg id="Layer_1" data-name="Layer 1" xmlns="http://www.w3.org/2000/svg" viewBox="0 0 149.94 333.41"><defs><style>.cls-1{fill:#fff;}.cls-2{fill:#e5e7e8;}.cls-3{fill:#0f1719;}.cls-4{fill:#ed1c24;}.cls-5{fill:#f4cd28;}</style></defs><path class="cls-1" d="M679.92,301.06l17.13,20.21,5-25.57-7.34-183.43-13-33L650,59.7c-10-4.4-20.72-3.57-20.72-3.57s-10.78-.83-20.73,3.57L576.83,79.3l-13,33-7.19,179.6,4.81,29.4,17.13-20.21,14.74,79.38L560,365.59l1.88,5.57,27.35,12s12.39,6.35,40,6.35,40-6.35,40-6.35l27.35-12,2.06-6.12-33.5,15.4Z" transform="translate(-554.27 -56.07)"/><rect class="cls-2" x="653.22" y="96.48" width="33.53" height="1.46" transform="translate(-110.07 679.39) rotate(-78.77)"/><path class="cls-3" d="M688.07,133.27l-8.06,123-7.33,8.05s-3.66-31.87,3.67-62.89Z" transform="translate(-554.27 -56.07)"/><rect class="cls-2" x="639.88" y="212.23" width="55.66" height="1.47" transform="translate(-194.41 786.52) rotate(-81.63)"/><path class="cls-3" d="M629.25,366.52H607.17l-11.6-18.08h-5.25c-7-41.76,7.39-80.84,7.39-80.84L612.36,259h33.76l14.66,8.61s14.35,39.08,7.39,80.84h-5.25l-11.61,18.08Z" transform="translate(-554.27 -56.07)"/><polygon class="cls-2" points="89.84 163 87.64 202.93 85.44 163 89.84 163"/><rect class="cls-2" x="587.77" y="80.45" width="1.46" height="33.53" transform="translate(-561.95 59.95) rotate(-11.19)"/><path class="cls-3" d="M570.42,133.27l8.05,123,7.33,8.05s3.67-31.87-3.66-62.89Z" transform="translate(-554.27 -56.07)"/><polygon class="cls-2" points="125.92 250.16 117.75 208.69 90.73 191.94 59.21 191.94 32.19 208.69 24.02 250.16 19.25 197.13 24.05 197.13 24.05 198.59 20.85 198.59 24.56 239.83 30.87 207.78 58.8 190.47 91.14 190.47 119.07 207.78 125.38 239.83 129.09 198.59 125.89 198.59 125.89 197.13 130.69 197.13 125.92 250.16"/><rect class="cls-2" x="589.87" y="185.11" width="1.46" height="55.71" transform="translate(-579.8 36.26) rotate(-8.75)"/><path class="cls-2" d="M578.57,301.06l-17.13,20.21-4.81-29.4-.5,12.61s-3.3,27.84-1.1,46.4l5,14.71,33.32,14.85Z" transform="translate(-554.27 -56.07)"/><path class="cls-2" d="M702.36,304.48,702,295.7l-5,25.57-17.13-20.21-14.74,79.38,33.5-15.4,4.78-14.16C705.66,332.32,702.36,304.48,702.36,304.48Z" transform="translate(-554.27 -56.07)"/><polygon class="cls-2" points="64.5 163 62.3 202.93 60.1 163 64.5 163"/><polygon class="cls-4" points="115.27 323.73 115.27 325.56 138.07 315.52 137.7 313.62 115.27 323.73"/><path class="cls-4" d="M668.81,382.75v-3.43l23.71-10.68.65,3.38Zm1.46-2.48v.23l21.25-9.35-.08-.41Z" transform="translate(-554.27 -56.07)"/><polygon class="cls-4" points="34.14 323.73 34.14 325.56 11.33 315.52 11.7 313.62 34.14 323.73"/><path class="cls-4" d="M589.15,382.75,564.78,372l.65-3.38,23.72,10.68Zm-22.71-11.6,21.24,9.35v-.23l-21.16-9.53Z" transform="translate(-554.27 -56.07)"/><path class="cls-5" d="M651.07,62.08l28.39,17.58,6.42,16.67s-10.63.92-12.64-15.57Z" transform="translate(-554.27 -56.07)"/><path class="cls-5" d="M607.42,62.08,579,79.66l-6.42,16.67s10.63.92,12.64-15.57Z" transform="translate(-554.27 -56.07)"/><path class="cls-3" d="M629.25,179.31a143.66,143.66,0,0,0-43.45,7.33l-11-57c18.32-27.36,54.44-25.39,54.44-25.39s36.11-2,54.43,25.39l-11,57A143.53,143.53,0,0,0,629.25,179.31Z" transform="translate(-554.27 -56.07)"/></svg>